<svg xmlns="http://www.w3.org/2000/svg" viewBox="0 0 512 512">
<g fill="#000000">
<circle cx="256" cy="256" r="10"/>
<line x1="256" y1="256" x2="366.0" y2="256.0" stroke="#000000" stroke-width="3"/>
<circle cx="406.0" cy="256.0" r="26"/>
<line x1="256" y1="256" x2="333.8" y2="333.8" stroke="#000000" stroke-width="3"/>
<circle cx="362.1" cy="362.1" r="26"/>
<line x1="256" y1="256" x2="256.0" y2="366.0" stroke="#000000" stroke-width="3"/>
<circle cx="256.0" cy="406.0" r="26"/>
<line x1="256" y1="256" x2="178.2" y2="333.8" stroke="#000000" stroke-width="3"/>
<circle cx="149.9" cy="362.1" r="26"/>
<line x1="256" y1="256" x2="146.0" y2="256.0" stroke="#000000" stroke-width="3"/>
<circle cx="106.0" cy="256.0" r="26"/>
<line x1="256" y1="256" x2="178.2" y2="178.2" stroke="#000000" stroke-width="3"/>
<circle cx="149.9" cy="149.9" r="26"/>
<line x1="256" y1="256" x2="256.0" y2="146.0" stroke="#000000" stroke-width="3"/>
<circle cx="256.0" cy="106.0" r="26"/>
<line x1="256" y1="256" x2="333.8" y2="178.2" stroke="#000000" stroke-width="3"/>
<circle cx="362.1" cy="149.9" r="26"/>
<line x1="256" y1="256" x2="331.8" y2="287.4" stroke="#000000" stroke-width="3"/>
<circle cx="357.6" cy="298.1" r="14"/>
<line x1="256" y1="256" x2="287.4" y2="331.8" stroke="#000000" stroke-width="3"/>
<circle cx="298.1" cy="357.6" r="14"/>
<line x1="256" y1="256" x2="224.6" y2="331.8" stroke="#000000" stroke-width="3"/>
<circle cx="213.9" cy="357.6" r="14"/>
<line x1="256" y1="256" x2="180.2" y2="287.4" stroke="#000000" stroke-width="3"/>
<circle cx="154.4" cy="298.1" r="14"/>
<line x1="256" y1="256" x2="180.2" y2="224.6" stroke="#000000" stroke-width="3"/>
<circle cx="154.4" cy="213.9" r="14"/>
<line x1="256" y1="256" x2="224.6" y2="180.2" stroke="#000000" stroke-width="3"/>
<circle cx="213.9" cy="154.4" r="14"/>
<line x1="256" y1="256" x2="287.4" y2="180.2" stroke="#000000" stroke-width="3"/>
<circle cx="298.1" cy="154.4" r="14"/>
<line x1="256" y1="256" x2="331.8" y2="224.6" stroke="#000000" stroke-width="3"/>
<circle cx="357.6" cy="213.9" r="14"/>
<line x1="256" y1="256" x2="302.0" y2="256.0" stroke="#000000" stroke-width="3"/>
<circle cx="326.0" cy="256.0" r="10"/>
<line x1="256" y1="256" x2="279.0" y2="295.8" stroke="#000000" stroke-width="3"/>
<circle cx="291.0" cy="316.6" r="10"/>
<line x1="256" y1="256" x2="233.0" y2="295.8" stroke="#000000" stroke-width="3"/>
<circle cx="221.0" cy="316.6" r="10"/>
<line x1="256" y1="256" x2="210.0" y2="256.0" stroke="#000000" stroke-width="3"/>
<circle cx="186.0" cy="256.0" r="10"/>
<line x1="256" y1="256" x2="233.0" y2="216.2" stroke="#000000" stroke-width="3"/>
<circle cx="221.0" cy="195.4" r="10"/>
<line x1="256" y1="256" x2="279.0" y2="216.2" stroke="#000000" stroke-width="3"/>
<circle cx="291.0" cy="195.4" r="10"/>
</g>
</svg>
